<mxfile host="app.diagrams.net" modified="2022-12-01T13:06:11.287Z" agent="5.0 (X11; Linux x86_64) AppleWebKit/537.36 (KHTML, like Gecko) Chrome/107.0.0.0 Safari/537.36" etag="k52etRImrG_2DpZvKe6g" version="20.6.0" type="github">
  <diagram id="prtHgNgQTEPvFCAcTncT" name="Page-1">
    <mxGraphModel dx="1364" dy="1913" grid="1" gridSize="10" guides="1" tooltips="1" connect="1" arrows="1" fold="1" page="1" pageScale="1" pageWidth="827" pageHeight="1169" math="0" shadow="0">
      <root>
        <mxCell id="0" />
        <mxCell id="1" parent="0" />
        <mxCell id="QMp9GDG5UcHeRFmErmmu-2" value="&lt;b&gt;&lt;i&gt;Broker&lt;/i&gt;&lt;/b&gt;" style="text;html=1;strokeColor=none;fillColor=none;align=center;verticalAlign=middle;whiteSpace=wrap;rounded=0;fontFamily=https://fonts.googleapis.com/css2?family=Raleway:wght@200&amp;display=swap;fontSource=https%3A%2F%2Ffonts.googleapis.com%2Fcss%3Ffamily%3Dhttps%253A%252F%252Ffonts.googleapis.com%252Fcss2%253Ffamily%253DRaleway%253Awght%2540200%2526display%253Dswap;fontColor=#383838;" parent="1" vertex="1">
          <mxGeometry x="375" y="-160" width="60" height="30" as="geometry" />
        </mxCell>
        <mxCell id="QMp9GDG5UcHeRFmErmmu-76" style="edgeStyle=orthogonalEdgeStyle;rounded=0;orthogonalLoop=1;jettySize=auto;html=1;fontFamily=https://fonts.googleapis.com/css2?family=Raleway:wght@200&amp;display=swap;fontSource=https%3A%2F%2Ffonts.googleapis.com%2Fcss%3Ffamily%3Dhttps%253A%252F%252Ffonts.googleapis.com%252Fcss2%253Ffamily%253DRaleway%253Awght%2540200%2526display%253Dswap;fontSize=12;fontColor=#383838;" parent="1" source="QMp9GDG5UcHeRFmErmmu-3" target="QMp9GDG5UcHeRFmErmmu-29" edge="1">
          <mxGeometry relative="1" as="geometry" />
        </mxCell>
        <mxCell id="QMp9GDG5UcHeRFmErmmu-3" value="" style="aspect=fixed;perimeter=ellipsePerimeter;html=1;align=center;shadow=0;dashed=0;spacingTop=3;image;image=img/lib/active_directory/home_page.svg;fontFamily=https://fonts.googleapis.com/css2?family=Raleway:wght@200&amp;display=swap;fontSource=https%3A%2F%2Ffonts.googleapis.com%2Fcss%3Ffamily%3Dhttps%253A%252F%252Ffonts.googleapis.com%252Fcss2%253Ffamily%253DRaleway%253Awght%2540200%2526display%253Dswap;fontColor=#383838;" parent="1" vertex="1">
          <mxGeometry x="170" y="-200" width="60" height="54" as="geometry" />
        </mxCell>
        <mxCell id="QMp9GDG5UcHeRFmErmmu-4" value="&lt;b&gt;&lt;i&gt;CrecemÃ¡s&lt;/i&gt;&lt;/b&gt;" style="text;html=1;strokeColor=none;fillColor=none;align=center;verticalAlign=middle;whiteSpace=wrap;rounded=0;fontFamily=https://fonts.googleapis.com/css2?family=Raleway:wght@200&amp;display=swap;fontSource=https%3A%2F%2Ffonts.googleapis.com%2Fcss%3Ffamily%3Dhttps%253A%252F%252Ffonts.googleapis.com%252Fcss2%253Ffamily%253DRaleway%253Awght%2540200%2526display%253Dswap;fontColor=#383838;" parent="1" vertex="1">
          <mxGeometry x="170" y="-155.55" width="60" height="30" as="geometry" />
        </mxCell>
        <mxCell id="QMp9GDG5UcHeRFmErmmu-78" style="edgeStyle=orthogonalEdgeStyle;rounded=0;orthogonalLoop=1;jettySize=auto;html=1;fontFamily=https://fonts.googleapis.com/css2?family=Raleway:wght@200&amp;display=swap;fontSource=https%3A%2F%2Ffonts.googleapis.com%2Fcss%3Ffamily%3Dhttps%253A%252F%252Ffonts.googleapis.com%252Fcss2%253Ffamily%253DRaleway%253Awght%2540200%2526display%253Dswap;fontSize=12;fontColor=#383838;" parent="1" source="QMp9GDG5UcHeRFmErmmu-29" target="QMp9GDG5UcHeRFmErmmu-3" edge="1">
          <mxGeometry relative="1" as="geometry" />
        </mxCell>
        <mxCell id="QMp9GDG5UcHeRFmErmmu-79" style="edgeStyle=orthogonalEdgeStyle;rounded=0;orthogonalLoop=1;jettySize=auto;html=1;fontFamily=https://fonts.googleapis.com/css2?family=Raleway:wght@200&amp;display=swap;fontSource=https%3A%2F%2Ffonts.googleapis.com%2Fcss%3Ffamily%3Dhttps%253A%252F%252Ffonts.googleapis.com%252Fcss2%253Ffamily%253DRaleway%253Awght%2540200%2526display%253Dswap;fontSize=12;fontColor=#383838;" parent="1" source="QMp9GDG5UcHeRFmErmmu-29" target="QMp9GDG5UcHeRFmErmmu-5" edge="1">
          <mxGeometry relative="1" as="geometry" />
        </mxCell>
        <mxCell id="QMp9GDG5UcHeRFmErmmu-29" value="" style="aspect=fixed;perimeter=ellipsePerimeter;html=1;align=center;shadow=0;dashed=0;spacingTop=3;image;image=img/lib/active_directory/switch.svg;fontFamily=https://fonts.googleapis.com/css2?family=Raleway:wght@200&amp;display=swap;fontSource=https%3A%2F%2Ffonts.googleapis.com%2Fcss%3Ffamily%3Dhttps%253A%252F%252Ffonts.googleapis.com%252Fcss2%253Ffamily%253DRaleway%253Awght%2540200%2526display%253Dswap;fontSize=8;fontColor=#383838;" parent="1" vertex="1">
          <mxGeometry x="384.69999999999993" y="-193.3" width="40.6" height="40.6" as="geometry" />
        </mxCell>
        <mxCell id="QMp9GDG5UcHeRFmErmmu-77" style="edgeStyle=orthogonalEdgeStyle;rounded=0;orthogonalLoop=1;jettySize=auto;html=1;entryX=1;entryY=0.5;entryDx=0;entryDy=0;fontFamily=https://fonts.googleapis.com/css2?family=Raleway:wght@200&amp;display=swap;fontSource=https%3A%2F%2Ffonts.googleapis.com%2Fcss%3Ffamily%3Dhttps%253A%252F%252Ffonts.googleapis.com%252Fcss2%253Ffamily%253DRaleway%253Awght%2540200%2526display%253Dswap;fontSize=12;fontColor=#383838;" parent="1" source="QMp9GDG5UcHeRFmErmmu-5" target="QMp9GDG5UcHeRFmErmmu-29" edge="1">
          <mxGeometry relative="1" as="geometry" />
        </mxCell>
        <mxCell id="QMp9GDG5UcHeRFmErmmu-5" value="" style="aspect=fixed;perimeter=ellipsePerimeter;html=1;align=center;shadow=0;dashed=0;spacingTop=3;image;image=img/lib/active_directory/workspace_site.svg;fontFamily=https://fonts.googleapis.com/css2?family=Raleway:wght@200&amp;display=swap;fontSource=https%3A%2F%2Ffonts.googleapis.com%2Fcss%3Ffamily%3Dhttps%253A%252F%252Ffonts.googleapis.com%252Fcss2%253Ffamily%253DRaleway%253Awght%2540200%2526display%253Dswap;fontColor=#383838;" parent="1" vertex="1">
          <mxGeometry x="573.25" y="-197.25" width="50" height="48.5" as="geometry" />
        </mxCell>
        <mxCell id="QMp9GDG5UcHeRFmErmmu-13" value="&lt;b&gt;&lt;i&gt;Crecemas&lt;/i&gt;&lt;/b&gt;" style="text;html=1;strokeColor=none;fillColor=none;align=center;verticalAlign=middle;whiteSpace=wrap;rounded=0;fontFamily=https://fonts.googleapis.com/css2?family=Raleway:wght@200&amp;display=swap;fontSource=https%3A%2F%2Ffonts.googleapis.com%2Fcss%3Ffamily%3Dhttps%253A%252F%252Ffonts.googleapis.com%252Fcss2%253Ffamily%253DRaleway%253Awght%2540200%2526display%253Dswap;fontColor=#383838;" parent="1" vertex="1">
          <mxGeometry x="170" y="-110.00000000000003" width="90" height="30" as="geometry" />
        </mxCell>
        <mxCell id="QMp9GDG5UcHeRFmErmmu-17" value="&lt;b&gt;&lt;i&gt;VAT&lt;/i&gt;&lt;/b&gt;" style="text;html=1;strokeColor=none;fillColor=none;align=center;verticalAlign=middle;whiteSpace=wrap;rounded=0;fontFamily=https://fonts.googleapis.com/css2?family=Raleway:wght@200&amp;display=swap;fontSource=https%3A%2F%2Ffonts.googleapis.com%2Fcss%3Ffamily%3Dhttps%253A%252F%252Ffonts.googleapis.com%252Fcss2%253Ffamily%253DRaleway%253Awght%2540200%2526display%253Dswap;fontColor=#383838;" parent="1" vertex="1">
          <mxGeometry x="195" y="-72.9" width="50" height="18.8" as="geometry" />
        </mxCell>
        <mxCell id="QMp9GDG5UcHeRFmErmmu-16" value="" style="outlineConnect=0;dashed=0;verticalLabelPosition=bottom;verticalAlign=top;align=center;html=1;shape=mxgraph.aws3.topic_2;fillColor=#D9A741;gradientColor=none;fontFamily=https://fonts.googleapis.com/css2?family=Raleway:wght@200&amp;display=swap;fontSource=https%3A%2F%2Ffonts.googleapis.com%2Fcss%3Ffamily%3Dhttps%253A%252F%252Ffonts.googleapis.com%252Fcss2%253Ffamily%253DRaleway%253Awght%2540200%2526display%253Dswap;fontColor=#383838;" parent="1" vertex="1">
          <mxGeometry x="181.75" y="-70.00000000000003" width="76.5" height="50.6" as="geometry" />
        </mxCell>
        <mxCell id="QMp9GDG5UcHeRFmErmmu-12" value="" style="outlineConnect=0;dashed=0;verticalLabelPosition=bottom;verticalAlign=top;align=center;html=1;shape=mxgraph.aws3.instance;fillColor=#F58534;gradientColor=none;fontFamily=https://fonts.googleapis.com/css2?family=Raleway:wght@200&amp;display=swap;fontSource=https%3A%2F%2Ffonts.googleapis.com%2Fcss%3Ffamily%3Dhttps%253A%252F%252Ffonts.googleapis.com%252Fcss2%253Ffamily%253DRaleway%253Awght%2540200%2526display%253Dswap;fontColor=#383838;" parent="1" vertex="1">
          <mxGeometry x="170" y="-89.4" width="100" height="100.6" as="geometry" />
        </mxCell>
        <mxCell id="QMp9GDG5UcHeRFmErmmu-25" style="edgeStyle=orthogonalEdgeStyle;rounded=0;orthogonalLoop=1;jettySize=auto;html=1;entryX=1;entryY=0.5;entryDx=0;entryDy=0;entryPerimeter=0;fontFamily=https://fonts.googleapis.com/css2?family=Raleway:wght@200&amp;display=swap;fontSource=https%3A%2F%2Ffonts.googleapis.com%2Fcss%3Ffamily%3Dhttps%253A%252F%252Ffonts.googleapis.com%252Fcss2%253Ffamily%253DRaleway%253Awght%2540200%2526display%253Dswap;fontSize=8;fontColor=#383838;" parent="1" source="QMp9GDG5UcHeRFmErmmu-19" target="QMp9GDG5UcHeRFmErmmu-12" edge="1">
          <mxGeometry relative="1" as="geometry" />
        </mxCell>
        <mxCell id="QMp9GDG5UcHeRFmErmmu-27" value="&lt;b style=&quot;font-size: 12px;&quot;&gt;&lt;i style=&quot;font-size: 12px;&quot;&gt;A/K&lt;/i&gt;&lt;/b&gt;" style="text;html=1;strokeColor=none;fillColor=none;align=center;verticalAlign=middle;whiteSpace=wrap;rounded=0;fontFamily=https://fonts.googleapis.com/css2?family=Raleway:wght@200&amp;display=swap;fontSource=https%3A%2F%2Ffonts.googleapis.com%2Fcss%3Ffamily%3Dhttps%253A%252F%252Ffonts.googleapis.com%252Fcss2%253Ffamily%253DRaleway%253Awght%2540200%2526display%253Dswap;fontColor=#383838;fontSize=12;" parent="1" vertex="1">
          <mxGeometry x="375" y="-89.4" width="60" height="30" as="geometry" />
        </mxCell>
        <mxCell id="QMp9GDG5UcHeRFmErmmu-19" value="" style="outlineConnect=0;dashed=0;verticalLabelPosition=bottom;verticalAlign=top;align=center;html=1;shape=mxgraph.aws3.instance;fillColor=#F58534;gradientColor=none;fontFamily=https://fonts.googleapis.com/css2?family=Raleway:wght@200&amp;display=swap;fontSource=https%3A%2F%2Ffonts.googleapis.com%2Fcss%3Ffamily%3Dhttps%253A%252F%252Ffonts.googleapis.com%252Fcss2%253Ffamily%253DRaleway%253Awght%2540200%2526display%253Dswap;fontColor=#383838;" parent="1" vertex="1">
          <mxGeometry x="528.25" y="-89.4" width="100" height="100.6" as="geometry" />
        </mxCell>
        <mxCell id="QMp9GDG5UcHeRFmErmmu-20" value="&lt;b&gt;&lt;i&gt;Odoo-Cliente&lt;/i&gt;&lt;/b&gt;" style="text;html=1;strokeColor=none;fillColor=none;align=center;verticalAlign=middle;whiteSpace=wrap;rounded=0;fontFamily=https://fonts.googleapis.com/css2?family=Raleway:wght@200&amp;display=swap;fontSource=https%3A%2F%2Ffonts.googleapis.com%2Fcss%3Ffamily%3Dhttps%253A%252F%252Ffonts.googleapis.com%252Fcss2%253Ffamily%253DRaleway%253Awght%2540200%2526display%253Dswap;fontColor=#383838;" parent="1" vertex="1">
          <mxGeometry x="536.5" y="-110.00000000000003" width="80" height="30" as="geometry" />
        </mxCell>
        <mxCell id="QMp9GDG5UcHeRFmErmmu-22" value="&lt;b&gt;&lt;i&gt;Vat&lt;/i&gt;&lt;/b&gt;" style="text;html=1;strokeColor=none;fillColor=none;align=center;verticalAlign=middle;whiteSpace=wrap;rounded=0;fontFamily=https://fonts.googleapis.com/css2?family=Raleway:wght@200&amp;display=swap;fontSource=https%3A%2F%2Ffonts.googleapis.com%2Fcss%3Ffamily%3Dhttps%253A%252F%252Ffonts.googleapis.com%252Fcss2%253Ffamily%253DRaleway%253Awght%2540200%2526display%253Dswap;fontColor=#383838;" parent="1" vertex="1">
          <mxGeometry x="553.25" y="-72.9" width="50" height="18.8" as="geometry" />
        </mxCell>
        <mxCell id="QMp9GDG5UcHeRFmErmmu-23" value="&lt;b&gt;&lt;i&gt;&lt;font style=&quot;font-size: 8px;&quot;&gt;CÃ³digo USuario&lt;/font&gt;&lt;/i&gt;&lt;/b&gt;" style="text;html=1;strokeColor=none;fillColor=none;align=center;verticalAlign=middle;whiteSpace=wrap;rounded=0;fontFamily=https://fonts.googleapis.com/css2?family=Raleway:wght@200&amp;display=swap;fontSource=https%3A%2F%2Ffonts.googleapis.com%2Fcss%3Ffamily%3Dhttps%253A%252F%252Ffonts.googleapis.com%252Fcss2%253Ffamily%253DRaleway%253Awght%2540200%2526display%253Dswap;fontColor=#383838;" parent="1" vertex="1">
          <mxGeometry x="546.5" y="-54.09999999999999" width="70" height="18.8" as="geometry" />
        </mxCell>
        <mxCell id="QMp9GDG5UcHeRFmErmmu-21" value="" style="outlineConnect=0;dashed=0;verticalLabelPosition=bottom;verticalAlign=top;align=center;html=1;shape=mxgraph.aws3.topic_2;fillColor=#D9A741;gradientColor=none;fontFamily=https://fonts.googleapis.com/css2?family=Raleway:wght@200&amp;display=swap;fontSource=https%3A%2F%2Ffonts.googleapis.com%2Fcss%3Ffamily%3Dhttps%253A%252F%252Ffonts.googleapis.com%252Fcss2%253Ffamily%253DRaleway%253Awght%2540200%2526display%253Dswap;fontColor=#383838;" parent="1" vertex="1">
          <mxGeometry x="540" y="-70.00000000000003" width="76.5" height="50.6" as="geometry" />
        </mxCell>
        <mxCell id="QMp9GDG5UcHeRFmErmmu-24" style="edgeStyle=orthogonalEdgeStyle;rounded=0;orthogonalLoop=1;jettySize=auto;html=1;fontFamily=https://fonts.googleapis.com/css2?family=Raleway:wght@200&amp;display=swap;fontSource=https%3A%2F%2Ffonts.googleapis.com%2Fcss%3Ffamily%3Dhttps%253A%252F%252Ffonts.googleapis.com%252Fcss2%253Ffamily%253DRaleway%253Awght%2540200%2526display%253Dswap;fontSize=8;fontColor=#383838;startArrow=none;" parent="1" source="QMp9GDG5UcHeRFmErmmu-112" target="QMp9GDG5UcHeRFmErmmu-19" edge="1">
          <mxGeometry relative="1" as="geometry" />
        </mxCell>
        <mxCell id="QMp9GDG5UcHeRFmErmmu-6" value="&lt;b&gt;&lt;i&gt;Odoo&lt;/i&gt;&lt;/b&gt;" style="text;html=1;strokeColor=none;fillColor=none;align=center;verticalAlign=middle;whiteSpace=wrap;rounded=0;fontFamily=https://fonts.googleapis.com/css2?family=Raleway:wght@200&amp;display=swap;fontSource=https%3A%2F%2Ffonts.googleapis.com%2Fcss%3Ffamily%3Dhttps%253A%252F%252Ffonts.googleapis.com%252Fcss2%253Ffamily%253DRaleway%253Awght%2540200%2526display%253Dswap;fontColor=#383838;" parent="1" vertex="1">
          <mxGeometry x="568.25" y="-160" width="60" height="30" as="geometry" />
        </mxCell>
        <mxCell id="QMp9GDG5UcHeRFmErmmu-35" value="" style="outlineConnect=0;dashed=0;verticalLabelPosition=bottom;verticalAlign=top;align=center;html=1;shape=mxgraph.aws3.topic_2;fillColor=#D9A741;gradientColor=none;fontFamily=https://fonts.googleapis.com/css2?family=Raleway:wght@200&amp;display=swap;fontSource=https%3A%2F%2Ffonts.googleapis.com%2Fcss%3Ffamily%3Dhttps%253A%252F%252Ffonts.googleapis.com%252Fcss2%253Ffamily%253DRaleway%253Awght%2540200%2526display%253Dswap;fontColor=#383838;" parent="1" vertex="1">
          <mxGeometry x="181.75" y="-70.00000000000003" width="76.5" height="50.6" as="geometry" />
        </mxCell>
        <mxCell id="QMp9GDG5UcHeRFmErmmu-18" value="&lt;b&gt;&lt;i&gt;&lt;font style=&quot;font-size: 8px;&quot;&gt;CÃ³digo Usuario&lt;/font&gt;&lt;/i&gt;&lt;/b&gt;" style="text;html=1;strokeColor=none;fillColor=none;align=center;verticalAlign=middle;whiteSpace=wrap;rounded=0;fontFamily=https://fonts.googleapis.com/css2?family=Raleway:wght@200&amp;display=swap;fontSource=https%3A%2F%2Ffonts.googleapis.com%2Fcss%3Ffamily%3Dhttps%253A%252F%252Ffonts.googleapis.com%252Fcss2%253Ffamily%253DRaleway%253Awght%2540200%2526display%253Dswap;fontColor=#383838;" parent="1" vertex="1">
          <mxGeometry x="185" y="-54.15" width="70" height="16.85" as="geometry" />
        </mxCell>
        <mxCell id="QMp9GDG5UcHeRFmErmmu-36" value="&lt;b&gt;&lt;i&gt;&lt;font style=&quot;font-size: 8px;&quot;&gt;CÃ³digo Usuario&lt;/font&gt;&lt;/i&gt;&lt;/b&gt;" style="text;html=1;strokeColor=none;fillColor=none;align=center;verticalAlign=middle;whiteSpace=wrap;rounded=0;fontFamily=https://fonts.googleapis.com/css2?family=Raleway:wght@200&amp;display=swap;fontSource=https%3A%2F%2Ffonts.googleapis.com%2Fcss%3Ffamily%3Dhttps%253A%252F%252Ffonts.googleapis.com%252Fcss2%253Ffamily%253DRaleway%253Awght%2540200%2526display%253Dswap;fontColor=#383838;" parent="1" vertex="1">
          <mxGeometry x="543.25" y="-54.099999999999994" width="70" height="16.85" as="geometry" />
        </mxCell>
        <mxCell id="QMp9GDG5UcHeRFmErmmu-38" value="&lt;b&gt;&lt;i&gt;&lt;font style=&quot;font-size: 8px;&quot;&gt;VAT&lt;/font&gt;&lt;/i&gt;&lt;/b&gt;" style="text;html=1;strokeColor=none;fillColor=none;align=center;verticalAlign=middle;whiteSpace=wrap;rounded=0;fontFamily=https://fonts.googleapis.com/css2?family=Raleway:wght@200&amp;display=swap;fontSource=https%3A%2F%2Ffonts.googleapis.com%2Fcss%3Ffamily%3Dhttps%253A%252F%252Ffonts.googleapis.com%252Fcss2%253Ffamily%253DRaleway%253Awght%2540200%2526display%253Dswap;fontColor=#383838;" parent="1" vertex="1">
          <mxGeometry x="185" y="-71.93" width="70" height="16.85" as="geometry" />
        </mxCell>
        <mxCell id="QMp9GDG5UcHeRFmErmmu-39" value="&lt;b&gt;&lt;i&gt;&lt;font style=&quot;font-size: 8px;&quot;&gt;VAT&lt;/font&gt;&lt;/i&gt;&lt;/b&gt;" style="text;html=1;strokeColor=none;fillColor=none;align=center;verticalAlign=middle;whiteSpace=wrap;rounded=0;fontFamily=https://fonts.googleapis.com/css2?family=Raleway:wght@200&amp;display=swap;fontSource=https%3A%2F%2Ffonts.googleapis.com%2Fcss%3Ffamily%3Dhttps%253A%252F%252Ffonts.googleapis.com%252Fcss2%253Ffamily%253DRaleway%253Awght%2540200%2526display%253Dswap;fontColor=#383838;" parent="1" vertex="1">
          <mxGeometry x="543.25" y="-71.93" width="70" height="16.85" as="geometry" />
        </mxCell>
        <mxCell id="QMp9GDG5UcHeRFmErmmu-88" style="edgeStyle=orthogonalEdgeStyle;rounded=0;orthogonalLoop=1;jettySize=auto;html=1;entryX=0;entryY=0.5;entryDx=0;entryDy=0;entryPerimeter=0;fontFamily=https://fonts.googleapis.com/css2?family=Raleway:wght@200&amp;display=swap;fontSource=https%3A%2F%2Ffonts.googleapis.com%2Fcss%3Ffamily%3Dhttps%253A%252F%252Ffonts.googleapis.com%252Fcss2%253Ffamily%253DRaleway%253Awght%2540200%2526display%253Dswap;fontSize=12;fontColor=#383838;" parent="1" source="QMp9GDG5UcHeRFmErmmu-40" target="QMp9GDG5UcHeRFmErmmu-87" edge="1">
          <mxGeometry relative="1" as="geometry" />
        </mxCell>
        <mxCell id="QMp9GDG5UcHeRFmErmmu-40" value="" style="aspect=fixed;perimeter=ellipsePerimeter;html=1;align=center;shadow=0;dashed=0;spacingTop=3;image;image=img/lib/active_directory/switch.svg;fontFamily=https://fonts.googleapis.com/css2?family=Raleway:wght@200&amp;display=swap;fontSource=https%3A%2F%2Ffonts.googleapis.com%2Fcss%3Ffamily%3Dhttps%253A%252F%252Ffonts.googleapis.com%252Fcss2%253Ffamily%253DRaleway%253Awght%2540200%2526display%253Dswap;fontSize=8;fontColor=#383838;" parent="1" vertex="1">
          <mxGeometry x="344.09999999999997" y="66.65" width="40.6" height="40.6" as="geometry" />
        </mxCell>
        <mxCell id="QMp9GDG5UcHeRFmErmmu-84" style="edgeStyle=orthogonalEdgeStyle;rounded=0;orthogonalLoop=1;jettySize=auto;html=1;entryX=0.5;entryY=0;entryDx=0;entryDy=0;fontFamily=https://fonts.googleapis.com/css2?family=Raleway:wght@200&amp;display=swap;fontSource=https%3A%2F%2Ffonts.googleapis.com%2Fcss%3Ffamily%3Dhttps%253A%252F%252Ffonts.googleapis.com%252Fcss2%253Ffamily%253DRaleway%253Awght%2540200%2526display%253Dswap;fontSize=12;fontColor=#383838;" parent="1" source="QMp9GDG5UcHeRFmErmmu-49" target="QMp9GDG5UcHeRFmErmmu-57" edge="1">
          <mxGeometry relative="1" as="geometry" />
        </mxCell>
        <mxCell id="QMp9GDG5UcHeRFmErmmu-49" value="" style="outlineConnect=0;dashed=0;verticalLabelPosition=bottom;verticalAlign=top;align=center;html=1;shape=mxgraph.aws3.instance;fillColor=#F58534;gradientColor=none;fontFamily=https://fonts.googleapis.com/css2?family=Raleway:wght@200&amp;display=swap;fontSource=https%3A%2F%2Ffonts.googleapis.com%2Fcss%3Ffamily%3Dhttps%253A%252F%252Ffonts.googleapis.com%252Fcss2%253Ffamily%253DRaleway%253Awght%2540200%2526display%253Dswap;fontColor=#383838;" parent="1" vertex="1">
          <mxGeometry x="531.5" y="37.25000000000001" width="100" height="100.6" as="geometry" />
        </mxCell>
        <mxCell id="QMp9GDG5UcHeRFmErmmu-50" value="&lt;b&gt;&lt;i&gt;Odoo-Pedido Venta&lt;/i&gt;&lt;/b&gt;" style="text;html=1;strokeColor=none;fillColor=none;align=center;verticalAlign=middle;whiteSpace=wrap;rounded=0;fontFamily=https://fonts.googleapis.com/css2?family=Raleway:wght@200&amp;display=swap;fontSource=https%3A%2F%2Ffonts.googleapis.com%2Fcss%3Ffamily%3Dhttps%253A%252F%252Ffonts.googleapis.com%252Fcss2%253Ffamily%253DRaleway%253Awght%2540200%2526display%253Dswap;fontColor=#383838;" parent="1" vertex="1">
          <mxGeometry x="539.75" y="16.65" width="100.25" height="30" as="geometry" />
        </mxCell>
        <mxCell id="QMp9GDG5UcHeRFmErmmu-51" value="&lt;b&gt;&lt;i&gt;Vat&lt;/i&gt;&lt;/b&gt;" style="text;html=1;strokeColor=none;fillColor=none;align=center;verticalAlign=middle;whiteSpace=wrap;rounded=0;fontFamily=https://fonts.googleapis.com/css2?family=Raleway:wght@200&amp;display=swap;fontSource=https%3A%2F%2Ffonts.googleapis.com%2Fcss%3Ffamily%3Dhttps%253A%252F%252Ffonts.googleapis.com%252Fcss2%253Ffamily%253DRaleway%253Awght%2540200%2526display%253Dswap;fontColor=#383838;" parent="1" vertex="1">
          <mxGeometry x="556.5" y="53.75000000000001" width="50" height="18.8" as="geometry" />
        </mxCell>
        <mxCell id="QMp9GDG5UcHeRFmErmmu-52" value="&lt;b&gt;&lt;i&gt;&lt;font style=&quot;font-size: 8px;&quot;&gt;CÃ³digo USuario&lt;/font&gt;&lt;/i&gt;&lt;/b&gt;" style="text;html=1;strokeColor=none;fillColor=none;align=center;verticalAlign=middle;whiteSpace=wrap;rounded=0;fontFamily=https://fonts.googleapis.com/css2?family=Raleway:wght@200&amp;display=swap;fontSource=https%3A%2F%2Ffonts.googleapis.com%2Fcss%3Ffamily%3Dhttps%253A%252F%252Ffonts.googleapis.com%252Fcss2%253Ffamily%253DRaleway%253Awght%2540200%2526display%253Dswap;fontColor=#383838;" parent="1" vertex="1">
          <mxGeometry x="549.75" y="72.55000000000001" width="70" height="18.8" as="geometry" />
        </mxCell>
        <mxCell id="QMp9GDG5UcHeRFmErmmu-53" value="" style="outlineConnect=0;dashed=0;verticalLabelPosition=bottom;verticalAlign=top;align=center;html=1;shape=mxgraph.aws3.topic_2;fillColor=#D9A741;gradientColor=none;fontFamily=https://fonts.googleapis.com/css2?family=Raleway:wght@200&amp;display=swap;fontSource=https%3A%2F%2Ffonts.googleapis.com%2Fcss%3Ffamily%3Dhttps%253A%252F%252Ffonts.googleapis.com%252Fcss2%253Ffamily%253DRaleway%253Awght%2540200%2526display%253Dswap;fontColor=#383838;" parent="1" vertex="1">
          <mxGeometry x="543.25" y="56.649999999999984" width="76.5" height="50.6" as="geometry" />
        </mxCell>
        <mxCell id="QMp9GDG5UcHeRFmErmmu-54" value="&lt;b&gt;&lt;i&gt;&lt;font style=&quot;font-size: 8px;&quot;&gt;CÃ³digo Usuario&lt;/font&gt;&lt;/i&gt;&lt;/b&gt;" style="text;html=1;strokeColor=none;fillColor=none;align=center;verticalAlign=middle;whiteSpace=wrap;rounded=0;fontFamily=https://fonts.googleapis.com/css2?family=Raleway:wght@200&amp;display=swap;fontSource=https%3A%2F%2Ffonts.googleapis.com%2Fcss%3Ffamily%3Dhttps%253A%252F%252Ffonts.googleapis.com%252Fcss2%253Ffamily%253DRaleway%253Awght%2540200%2526display%253Dswap;fontColor=#383838;" parent="1" vertex="1">
          <mxGeometry x="546.5" y="71.55000000000001" width="70" height="16.85" as="geometry" />
        </mxCell>
        <mxCell id="QMp9GDG5UcHeRFmErmmu-55" value="&lt;b&gt;&lt;i&gt;&lt;font style=&quot;font-size: 8px;&quot;&gt;VAT&lt;/font&gt;&lt;/i&gt;&lt;/b&gt;" style="text;html=1;strokeColor=none;fillColor=none;align=center;verticalAlign=middle;whiteSpace=wrap;rounded=0;fontFamily=https://fonts.googleapis.com/css2?family=Raleway:wght@200&amp;display=swap;fontSource=https%3A%2F%2Ffonts.googleapis.com%2Fcss%3Ffamily%3Dhttps%253A%252F%252Ffonts.googleapis.com%252Fcss2%253Ffamily%253DRaleway%253Awght%2540200%2526display%253Dswap;fontColor=#383838;" parent="1" vertex="1">
          <mxGeometry x="546.5" y="54.720000000000006" width="70" height="16.85" as="geometry" />
        </mxCell>
        <mxCell id="QMp9GDG5UcHeRFmErmmu-56" value="" style="outlineConnect=0;dashed=0;verticalLabelPosition=bottom;verticalAlign=top;align=center;html=1;shape=mxgraph.aws3.instance;fillColor=#F58534;gradientColor=none;fontFamily=https://fonts.googleapis.com/css2?family=Raleway:wght@200&amp;display=swap;fontSource=https%3A%2F%2Ffonts.googleapis.com%2Fcss%3Ffamily%3Dhttps%253A%252F%252Ffonts.googleapis.com%252Fcss2%253Ffamily%253DRaleway%253Awght%2540200%2526display%253Dswap;fontColor=#383838;" parent="1" vertex="1">
          <mxGeometry x="534.75" y="198.45" width="100" height="100.6" as="geometry" />
        </mxCell>
        <mxCell id="QMp9GDG5UcHeRFmErmmu-57" value="&lt;b&gt;&lt;i&gt;Factura&lt;/i&gt;&lt;/b&gt;" style="text;html=1;strokeColor=none;fillColor=none;align=center;verticalAlign=middle;whiteSpace=wrap;rounded=0;fontFamily=https://fonts.googleapis.com/css2?family=Raleway:wght@200&amp;display=swap;fontSource=https%3A%2F%2Ffonts.googleapis.com%2Fcss%3Ffamily%3Dhttps%253A%252F%252Ffonts.googleapis.com%252Fcss2%253Ffamily%253DRaleway%253Awght%2540200%2526display%253Dswap;fontColor=#383838;" parent="1" vertex="1">
          <mxGeometry x="541.5" y="177.84999999999997" width="80" height="30" as="geometry" />
        </mxCell>
        <mxCell id="QMp9GDG5UcHeRFmErmmu-58" value="&lt;b&gt;&lt;i&gt;Vat&lt;/i&gt;&lt;/b&gt;" style="text;html=1;strokeColor=none;fillColor=none;align=center;verticalAlign=middle;whiteSpace=wrap;rounded=0;fontFamily=https://fonts.googleapis.com/css2?family=Raleway:wght@200&amp;display=swap;fontSource=https%3A%2F%2Ffonts.googleapis.com%2Fcss%3Ffamily%3Dhttps%253A%252F%252Ffonts.googleapis.com%252Fcss2%253Ffamily%253DRaleway%253Awght%2540200%2526display%253Dswap;fontColor=#383838;" parent="1" vertex="1">
          <mxGeometry x="559.75" y="214.95" width="50" height="18.8" as="geometry" />
        </mxCell>
        <mxCell id="QMp9GDG5UcHeRFmErmmu-59" value="&lt;b&gt;&lt;i&gt;&lt;font style=&quot;font-size: 8px;&quot;&gt;CÃ³digo USuario&lt;/font&gt;&lt;/i&gt;&lt;/b&gt;" style="text;html=1;strokeColor=none;fillColor=none;align=center;verticalAlign=middle;whiteSpace=wrap;rounded=0;fontFamily=https://fonts.googleapis.com/css2?family=Raleway:wght@200&amp;display=swap;fontSource=https%3A%2F%2Ffonts.googleapis.com%2Fcss%3Ffamily%3Dhttps%253A%252F%252Ffonts.googleapis.com%252Fcss2%253Ffamily%253DRaleway%253Awght%2540200%2526display%253Dswap;fontColor=#383838;" parent="1" vertex="1">
          <mxGeometry x="553" y="233.74999999999997" width="70" height="18.8" as="geometry" />
        </mxCell>
        <mxCell id="QMp9GDG5UcHeRFmErmmu-60" value="" style="outlineConnect=0;dashed=0;verticalLabelPosition=bottom;verticalAlign=top;align=center;html=1;shape=mxgraph.aws3.topic_2;fillColor=#D9A741;gradientColor=none;fontFamily=https://fonts.googleapis.com/css2?family=Raleway:wght@200&amp;display=swap;fontSource=https%3A%2F%2Ffonts.googleapis.com%2Fcss%3Ffamily%3Dhttps%253A%252F%252Ffonts.googleapis.com%252Fcss2%253Ffamily%253DRaleway%253Awght%2540200%2526display%253Dswap;fontColor=#383838;" parent="1" vertex="1">
          <mxGeometry x="546.5" y="217.84999999999997" width="76.5" height="50.6" as="geometry" />
        </mxCell>
        <mxCell id="QMp9GDG5UcHeRFmErmmu-61" value="&lt;b&gt;&lt;i&gt;&lt;font style=&quot;font-size: 8px;&quot;&gt;CÃ³digo Usuario&lt;/font&gt;&lt;/i&gt;&lt;/b&gt;" style="text;html=1;strokeColor=none;fillColor=none;align=center;verticalAlign=middle;whiteSpace=wrap;rounded=0;fontFamily=https://fonts.googleapis.com/css2?family=Raleway:wght@200&amp;display=swap;fontSource=https%3A%2F%2Ffonts.googleapis.com%2Fcss%3Ffamily%3Dhttps%253A%252F%252Ffonts.googleapis.com%252Fcss2%253Ffamily%253DRaleway%253Awght%2540200%2526display%253Dswap;fontColor=#383838;" parent="1" vertex="1">
          <mxGeometry x="549.75" y="233.74999999999997" width="70" height="16.85" as="geometry" />
        </mxCell>
        <mxCell id="QMp9GDG5UcHeRFmErmmu-62" value="&lt;b&gt;&lt;i&gt;&lt;font style=&quot;font-size: 8px;&quot;&gt;VAT&lt;/font&gt;&lt;/i&gt;&lt;/b&gt;" style="text;html=1;strokeColor=none;fillColor=none;align=center;verticalAlign=middle;whiteSpace=wrap;rounded=0;fontFamily=https://fonts.googleapis.com/css2?family=Raleway:wght@200&amp;display=swap;fontSource=https%3A%2F%2Ffonts.googleapis.com%2Fcss%3Ffamily%3Dhttps%253A%252F%252Ffonts.googleapis.com%252Fcss2%253Ffamily%253DRaleway%253Awght%2540200%2526display%253Dswap;fontColor=#383838;" parent="1" vertex="1">
          <mxGeometry x="549.75" y="215.92" width="70" height="16.85" as="geometry" />
        </mxCell>
        <mxCell id="QMp9GDG5UcHeRFmErmmu-70" style="edgeStyle=orthogonalEdgeStyle;rounded=0;orthogonalLoop=1;jettySize=auto;html=1;fontFamily=https://fonts.googleapis.com/css2?family=Raleway:wght@200&amp;display=swap;fontSource=https%3A%2F%2Ffonts.googleapis.com%2Fcss%3Ffamily%3Dhttps%253A%252F%252Ffonts.googleapis.com%252Fcss2%253Ffamily%253DRaleway%253Awght%2540200%2526display%253Dswap;fontSize=12;fontColor=#383838;" parent="1" source="QMp9GDG5UcHeRFmErmmu-63" target="QMp9GDG5UcHeRFmErmmu-40" edge="1">
          <mxGeometry relative="1" as="geometry" />
        </mxCell>
        <mxCell id="QMp9GDG5UcHeRFmErmmu-63" value="" style="outlineConnect=0;dashed=0;verticalLabelPosition=bottom;verticalAlign=top;align=center;html=1;shape=mxgraph.aws3.instance;fillColor=#F58534;gradientColor=none;fontFamily=https://fonts.googleapis.com/css2?family=Raleway:wght@200&amp;display=swap;fontSource=https%3A%2F%2Ffonts.googleapis.com%2Fcss%3Ffamily%3Dhttps%253A%252F%252Ffonts.googleapis.com%252Fcss2%253Ffamily%253DRaleway%253Awght%2540200%2526display%253Dswap;fontColor=#383838;" parent="1" vertex="1">
          <mxGeometry x="170" y="37.25000000000002" width="100" height="100.6" as="geometry" />
        </mxCell>
        <mxCell id="QMp9GDG5UcHeRFmErmmu-64" value="&lt;b&gt;&lt;i&gt;Crecemas&lt;/i&gt;&lt;/b&gt;" style="text;html=1;strokeColor=none;fillColor=none;align=center;verticalAlign=middle;whiteSpace=wrap;rounded=0;fontFamily=https://fonts.googleapis.com/css2?family=Raleway:wght@200&amp;display=swap;fontSource=https%3A%2F%2Ffonts.googleapis.com%2Fcss%3Ffamily%3Dhttps%253A%252F%252Ffonts.googleapis.com%252Fcss2%253Ffamily%253DRaleway%253Awght%2540200%2526display%253Dswap;fontColor=#383838;" parent="1" vertex="1">
          <mxGeometry x="178.25" y="16.65" width="80" height="30" as="geometry" />
        </mxCell>
        <mxCell id="QMp9GDG5UcHeRFmErmmu-65" value="&lt;b&gt;&lt;i&gt;Vat&lt;/i&gt;&lt;/b&gt;" style="text;html=1;strokeColor=none;fillColor=none;align=center;verticalAlign=middle;whiteSpace=wrap;rounded=0;fontFamily=https://fonts.googleapis.com/css2?family=Raleway:wght@200&amp;display=swap;fontSource=https%3A%2F%2Ffonts.googleapis.com%2Fcss%3Ffamily%3Dhttps%253A%252F%252Ffonts.googleapis.com%252Fcss2%253Ffamily%253DRaleway%253Awght%2540200%2526display%253Dswap;fontColor=#383838;" parent="1" vertex="1">
          <mxGeometry x="195" y="53.75000000000002" width="50" height="18.8" as="geometry" />
        </mxCell>
        <mxCell id="QMp9GDG5UcHeRFmErmmu-66" value="&lt;b&gt;&lt;i&gt;&lt;font style=&quot;font-size: 8px;&quot;&gt;CÃ³digo USuario&lt;/font&gt;&lt;/i&gt;&lt;/b&gt;" style="text;html=1;strokeColor=none;fillColor=none;align=center;verticalAlign=middle;whiteSpace=wrap;rounded=0;fontFamily=https://fonts.googleapis.com/css2?family=Raleway:wght@200&amp;display=swap;fontSource=https%3A%2F%2Ffonts.googleapis.com%2Fcss%3Ffamily%3Dhttps%253A%252F%252Ffonts.googleapis.com%252Fcss2%253Ffamily%253DRaleway%253Awght%2540200%2526display%253Dswap;fontColor=#383838;" parent="1" vertex="1">
          <mxGeometry x="188.25" y="72.55000000000004" width="70" height="18.8" as="geometry" />
        </mxCell>
        <mxCell id="QMp9GDG5UcHeRFmErmmu-67" value="" style="outlineConnect=0;dashed=0;verticalLabelPosition=bottom;verticalAlign=top;align=center;html=1;shape=mxgraph.aws3.topic_2;fillColor=#D9A741;gradientColor=none;fontFamily=https://fonts.googleapis.com/css2?family=Raleway:wght@200&amp;display=swap;fontSource=https%3A%2F%2Ffonts.googleapis.com%2Fcss%3Ffamily%3Dhttps%253A%252F%252Ffonts.googleapis.com%252Fcss2%253Ffamily%253DRaleway%253Awght%2540200%2526display%253Dswap;fontColor=#383838;" parent="1" vertex="1">
          <mxGeometry x="181.75" y="56.65" width="76.5" height="50.6" as="geometry" />
        </mxCell>
        <mxCell id="QMp9GDG5UcHeRFmErmmu-68" value="&lt;b&gt;&lt;i&gt;&lt;font style=&quot;font-size: 8px;&quot;&gt;CÃ³digo Usuario&lt;/font&gt;&lt;/i&gt;&lt;/b&gt;" style="text;html=1;strokeColor=none;fillColor=none;align=center;verticalAlign=middle;whiteSpace=wrap;rounded=0;fontFamily=https://fonts.googleapis.com/css2?family=Raleway:wght@200&amp;display=swap;fontSource=https%3A%2F%2Ffonts.googleapis.com%2Fcss%3Ffamily%3Dhttps%253A%252F%252Ffonts.googleapis.com%252Fcss2%253Ffamily%253DRaleway%253Awght%2540200%2526display%253Dswap;fontColor=#383838;" parent="1" vertex="1">
          <mxGeometry x="186" y="71.55000000000001" width="70" height="16.85" as="geometry" />
        </mxCell>
        <mxCell id="QMp9GDG5UcHeRFmErmmu-69" value="&lt;span style=&quot;font-size: 8px;&quot;&gt;&lt;b&gt;&lt;i&gt;VAT 2&lt;/i&gt;&lt;/b&gt;&lt;/span&gt;" style="text;html=1;strokeColor=none;fillColor=none;align=center;verticalAlign=middle;whiteSpace=wrap;rounded=0;fontFamily=https://fonts.googleapis.com/css2?family=Raleway:wght@200&amp;display=swap;fontSource=https%3A%2F%2Ffonts.googleapis.com%2Fcss%3Ffamily%3Dhttps%253A%252F%252Ffonts.googleapis.com%252Fcss2%253Ffamily%253DRaleway%253Awght%2540200%2526display%253Dswap;fontColor=#383838;" parent="1" vertex="1">
          <mxGeometry x="185" y="54.71999999999999" width="70" height="16.85" as="geometry" />
        </mxCell>
        <mxCell id="QMp9GDG5UcHeRFmErmmu-89" value="SÃ" style="edgeStyle=orthogonalEdgeStyle;rounded=0;orthogonalLoop=1;jettySize=auto;html=1;fontFamily=https://fonts.googleapis.com/css2?family=Raleway:wght@200&amp;display=swap;fontSource=https%3A%2F%2Ffonts.googleapis.com%2Fcss%3Ffamily%3Dhttps%253A%252F%252Ffonts.googleapis.com%252Fcss2%253Ffamily%253DRaleway%253Awght%2540200%2526display%253Dswap;fontSize=8;fontColor=#383838;" parent="1" source="QMp9GDG5UcHeRFmErmmu-87" target="QMp9GDG5UcHeRFmErmmu-49" edge="1">
          <mxGeometry relative="1" as="geometry" />
        </mxCell>
        <mxCell id="QMp9GDG5UcHeRFmErmmu-91" value="NO" style="edgeStyle=orthogonalEdgeStyle;rounded=0;orthogonalLoop=1;jettySize=auto;html=1;fontFamily=https://fonts.googleapis.com/css2?family=Raleway:wght@200&amp;display=swap;fontSource=https%3A%2F%2Ffonts.googleapis.com%2Fcss%3Ffamily%3Dhttps%253A%252F%252Ffonts.googleapis.com%252Fcss2%253Ffamily%253DRaleway%253Awght%2540200%2526display%253Dswap;fontSize=8;fontColor=#383838;" parent="1" source="QMp9GDG5UcHeRFmErmmu-87" edge="1">
          <mxGeometry relative="1" as="geometry">
            <mxPoint x="383.39999999999986" y="247.84999999999977" as="targetPoint" />
            <Array as="points">
              <mxPoint x="462" y="247.85" />
            </Array>
          </mxGeometry>
        </mxCell>
        <mxCell id="QMp9GDG5UcHeRFmErmmu-87" value="&lt;font style=&quot;font-size: 8px;&quot;&gt;Â¿Existe Vat?&lt;/font&gt;" style="strokeWidth=2;html=1;shape=mxgraph.flowchart.decision;whiteSpace=wrap;fontFamily=https://fonts.googleapis.com/css2?family=Raleway:wght@200&amp;display=swap;fontSource=https%3A%2F%2Ffonts.googleapis.com%2Fcss%3Ffamily%3Dhttps%253A%252F%252Ffonts.googleapis.com%252Fcss2%253Ffamily%253DRaleway%253Awght%2540200%2526display%253Dswap;fontSize=12;fontColor=#383838;fontStyle=2" parent="1" vertex="1">
          <mxGeometry x="435" y="57.25000000000001" width="54.7" height="60.6" as="geometry" />
        </mxCell>
        <mxCell id="QMp9GDG5UcHeRFmErmmu-104" style="edgeStyle=orthogonalEdgeStyle;rounded=0;orthogonalLoop=1;jettySize=auto;html=1;entryX=0.5;entryY=1;entryDx=0;entryDy=0;fontFamily=https://fonts.googleapis.com/css2?family=Raleway:wght@200&amp;display=swap;fontSource=https%3A%2F%2Ffonts.googleapis.com%2Fcss%3Ffamily%3Dhttps%253A%252F%252Ffonts.googleapis.com%252Fcss2%253Ffamily%253DRaleway%253Awght%2540200%2526display%253Dswap;fontSize=8;fontColor=#383838;" parent="1" target="QMp9GDG5UcHeRFmErmmu-40" edge="1">
          <mxGeometry relative="1" as="geometry">
            <mxPoint x="345" y="232.77000000000007" as="sourcePoint" />
          </mxGeometry>
        </mxCell>
        <mxCell id="QMp9GDG5UcHeRFmErmmu-112" value="" style="aspect=fixed;perimeter=ellipsePerimeter;html=1;align=center;shadow=0;dashed=0;spacingTop=3;image;image=img/lib/active_directory/switch.svg;fontFamily=https://fonts.googleapis.com/css2?family=Raleway:wght@200&amp;display=swap;fontSource=https%3A%2F%2Ffonts.googleapis.com%2Fcss%3Ffamily%3Dhttps%253A%252F%252Ffonts.googleapis.com%252Fcss2%253Ffamily%253DRaleway%253Awght%2540200%2526display%253Dswap;fontSize=8;fontColor=#383838;" parent="1" vertex="1">
          <mxGeometry x="384.69999999999993" y="-59.99999999999999" width="40.6" height="40.6" as="geometry" />
        </mxCell>
        <mxCell id="QMp9GDG5UcHeRFmErmmu-113" value="" style="edgeStyle=orthogonalEdgeStyle;rounded=0;orthogonalLoop=1;jettySize=auto;html=1;fontFamily=https://fonts.googleapis.com/css2?family=Raleway:wght@200&amp;display=swap;fontSource=https%3A%2F%2Ffonts.googleapis.com%2Fcss%3Ffamily%3Dhttps%253A%252F%252Ffonts.googleapis.com%252Fcss2%253Ffamily%253DRaleway%253Awght%2540200%2526display%253Dswap;fontSize=8;fontColor=#383838;endArrow=none;" parent="1" source="QMp9GDG5UcHeRFmErmmu-12" target="QMp9GDG5UcHeRFmErmmu-112" edge="1">
          <mxGeometry relative="1" as="geometry">
            <mxPoint x="270" y="-39.09999999999982" as="sourcePoint" />
            <mxPoint x="528.25" y="-39.09999999999982" as="targetPoint" />
          </mxGeometry>
        </mxCell>
        <mxCell id="QMp9GDG5UcHeRFmErmmu-124" value="&lt;b style=&quot;font-size: 12px;&quot;&gt;&lt;i&gt;No Existe Vat&lt;/i&gt;&lt;/b&gt;" style="rounded=1;whiteSpace=wrap;html=1;fontFamily=https://fonts.googleapis.com/css2?family=Raleway:wght@200&amp;display=swap;fontSource=https%3A%2F%2Ffonts.googleapis.com%2Fcss%3Ffamily%3Dhttps%253A%252F%252Ffonts.googleapis.com%252Fcss2%253Ffamily%253DRaleway%253Awght%2540200%2526display%253Dswap;fontSize=8;fontColor=#383838;" parent="1" vertex="1">
          <mxGeometry x="299.7" y="234.25" width="85" height="29" as="geometry" />
        </mxCell>
        <mxCell id="QMp9GDG5UcHeRFmErmmu-125" value="&lt;b&gt;&lt;i&gt;Sincronizacion clientes&lt;/i&gt;&lt;/b&gt;&lt;span style=&quot;color: rgba(0, 0, 0, 0); font-family: monospace; font-size: 0px; text-align: start;&quot;&gt;%3CmxGraphModel%3E%3Croot%3E%3CmxCell%20id%3D%220%22%2F%3E%3CmxCell%20id%3D%221%22%20parent%3D%220%22%2F%3E%3CmxCell%20id%3D%222%22%20value%3D%22%26lt%3Bb%26gt%3B%26lt%3Bi%26gt%3BPython%26lt%3B%2Fi%26gt%3B%26lt%3B%2Fb%26gt%3B%22%20style%3D%22text%3Bhtml%3D1%3BstrokeColor%3Dnone%3BfillColor%3Dnone%3Balign%3Dcenter%3BverticalAlign%3Dmiddle%3BwhiteSpace%3Dwrap%3Brounded%3D0%3BfontFamily%3Dhttps%3A%2F%2Ffonts.googleapis.com%2Fcss2%3Ffamily%3DRaleway%3Awght%40200%26amp%3Bdisplay%3Dswap%3BfontSource%3Dhttps%253A%252F%252Ffonts.googleapis.com%252Fcss%253Ffamily%253Dhttps%25253A%25252F%25252Ffonts.googleapis.com%25252Fcss2%25253Ffamily%25253DRaleway%25253Awght%252540200%252526display%25253Dswap%3BfontColor%3D%23383838%3B%22%20vertex%3D%221%22%20parent%3D%221%22%3E%3CmxGeometry%20x%3D%22178.25%22%20y%3D%2248.8%22%20width%3D%2280%22%20height%3D%2230%22%20as%3D%22geometry%22%2F%3E%3C%2FmxCell%3E%3C%2Froot%3E%3C%2FmxGraphModel%3E&lt;/span&gt;" style="text;html=1;strokeColor=none;fillColor=none;align=center;verticalAlign=middle;whiteSpace=wrap;rounded=0;fontFamily=https://fonts.googleapis.com/css2?family=Raleway:wght@200&amp;display=swap;fontSource=https%3A%2F%2Ffonts.googleapis.com%2Fcss%3Ffamily%3Dhttps%253A%252F%252Ffonts.googleapis.com%252Fcss2%253Ffamily%253DRaleway%253Awght%2540200%2526display%253Dswap;fontColor=#383838;" parent="1" vertex="1">
          <mxGeometry x="30" y="-67.25000000000001" width="80" height="30" as="geometry" />
        </mxCell>
        <mxCell id="QMp9GDG5UcHeRFmErmmu-126" value="&lt;b&gt;&lt;i&gt;Envio de Pedido&lt;/i&gt;&lt;/b&gt;" style="text;html=1;strokeColor=none;fillColor=none;align=center;verticalAlign=middle;whiteSpace=wrap;rounded=0;fontFamily=https://fonts.googleapis.com/css2?family=Raleway:wght@200&amp;display=swap;fontSource=https%3A%2F%2Ffonts.googleapis.com%2Fcss%3Ffamily%3Dhttps%253A%252F%252Ffonts.googleapis.com%252Fcss2%253Ffamily%253DRaleway%253Awght%2540200%2526display%253Dswap;fontColor=#383838;" parent="1" vertex="1">
          <mxGeometry x="30" y="53.74999999999999" width="80" height="30" as="geometry" />
        </mxCell>
        <mxCell id="QMp9GDG5UcHeRFmErmmu-130" value="&lt;b&gt;&lt;i&gt;Panorama General&lt;/i&gt;&lt;/b&gt;" style="text;html=1;strokeColor=none;fillColor=none;align=center;verticalAlign=middle;whiteSpace=wrap;rounded=0;fontFamily=https://fonts.googleapis.com/css2?family=Raleway:wght@200&amp;display=swap;fontSource=https%3A%2F%2Ffonts.googleapis.com%2Fcss%3Ffamily%3Dhttps%253A%252F%252Ffonts.googleapis.com%252Fcss2%253Ffamily%253DRaleway%253Awght%2540200%2526display%253Dswap;fontColor=#383838;" parent="1" vertex="1">
          <mxGeometry x="30" y="-182.70000000000002" width="80" height="30" as="geometry" />
        </mxCell>
        <mxCell id="tAM75DfVYOiaOsOmsWch-6" value="Alta de cliente" style="rounded=1;whiteSpace=wrap;html=1;fillColor=#fff2cc;strokeColor=#d6b656;" vertex="1" parent="1">
          <mxGeometry x="534.75" y="350" width="120" height="60" as="geometry" />
        </mxCell>
      </root>
    </mxGraphModel>
  </diagram>
</mxfile>
